{
  "source": "C:\\Users\\Peter\\Desktop\\stuff\\MIUN\\quantitative_research\\video_compression\\videos\\BVI-HD\\BVI-HD_CDVL_videos\\ORIG\\CalmingWater_1920x1080_60fps.mp4",
  "output": "C:\\Users\\Peter\\Desktop\\stuff\\MIUN\\quantitative_research\\video_compression\\compressed_videos\\BVI-HD\\av1\\1.5\\CalmingWater_1920x1080_60fps_av1.mkv",
  "codec": "av1",
  "ok": "Input #0, mov,mp4,m4a,3gp,3g2,mj2, from 'C:\\Users\\Peter\\Desktop\\stuff\\MIUN\\quantitative_research\\video_compression\\videos\\BVI-HD\\BVI-HD_CDVL_videos\\ORIG\\CalmingWater_1920x1080_60fps.mp4':\n  Metadata:\n    major_brand     : isom\n    minor_version   : 512\n    compatible_brands: isomiso2avc1mp41\n    encoder         : Lavf54.28.101\n  Duration: 00:00:05.00, start: 0.000000, bitrate: 623787 kb/s\n  Stream #0:0[0x1](und): Video: h264 (High 4:4:4 Predictive) (avc1 / 0x31637661), yuv420p(progressive), 1920x1080, 623782 kb/s, 60 fps, 60 tbr, 60 tbn (default)\n    Metadata:\n      handler_name    : VideoHandler\n      vendor_id       : [0][0][0][0]\n[out#0/matroska @ 000002994d1c90c0] Codec AVOption b:a (set bitrate (in bits/s)) has not been used for any stream. The most likely reason is either wrong type (e.g. a video option with no video streams) or that it is a private option of some decoder which was not actually used for any stream.\nStream mapping:\n  Stream #0:0 -> #0:0 (h264 (native) -> av1 (libsvtav1))\nPress [q] to stop, [?] for help\nSvt[info]: -------------------------------------------\nSvt[info]: SVT [version]:\tSVT-AV1 Encoder Lib v3.1.0-19-g6ecfe8ec\nSvt[info]: SVT [build]  :\tGCC 15.2.0\t 64 bit\nSvt[info]: LIB Build date: Aug 17 2025 11:37:13\nSvt[info]: -------------------------------------------\nSvt[info]: Level of Parallelism: 5\nSvt[info]: Number of PPCS 93\nSvt[info]: [asm level on system : up to avx2]\nSvt[info]: [asm level selected : up to avx2]\nSvt[info]: -------------------------------------------\nSvt[info]: SVT [config]: main profile\ttier (auto)\tlevel (auto)\nSvt[info]: SVT [config]: width / height / fps numerator / fps denominator \t\t: 1920 / 1080 / 60 / 1\nSvt[info]: SVT [config]: bit-depth / color format \t\t\t\t\t: 8 / YUV420\nSvt[info]: SVT [config]: preset / tune / pred struct \t\t\t\t\t: 4 / PSNR / random access\nSvt[info]: SVT [config]: gop size / mini-gop size / key-frame type \t\t\t: 321 / 16 / key frame\nSvt[info]: SVT [config]: BRC mode / target bitrate (kbps)\t\t\t\t: VBR / 1500 \nSvt[info]: SVT [config]: AQ mode / Variance Boost \t\t\t\t\t: 2 / 0\nSvt[info]: SVT [config]: sharpness / luminance-based QP bias \t\t\t\t: 0 / 0\nSvt[info]: SVT [config]: QP scale compress strength \t\t\t\t\t: 0\nSvt[info]: -------------------------------------------\nOutput #0, matroska, to 'C:\\Users\\Peter\\Desktop\\stuff\\MIUN\\quantitative_research\\video_compression\\compressed_videos\\BVI-HD\\av1\\1.5\\CalmingWater_1920x1080_60fps_av1.mkv':\n  Metadata:\n    major_brand     : isom\n    minor_version   : 512\n    compatible_brands: isomiso2avc1mp41\n    encoder         : Lavf62.3.100\n  Stream #0:0(und): Video: av1 (AV01 / 0x31305641), yuv420p(tv, progressive), 1920x1080, q=2-31, 1500 kb/s, 60 fps, 1k tbn (default)\n    Metadata:\n      encoder         : Lavc62.11.100 libsvtav1\n      handler_name    : VideoHandler\n      vendor_id       : [0][0][0][0]\n    Side data:\n      cpb: bitrate max/min/avg: 0/0/1500000 buffer size: 1500000 vbv_delay: N/A\nframe=    0 fps=0.0 q=0.0 size=       0KiB time=N/A bitrate=N/A speed=N/A elapsed=0:00:01.03    \nframe=    0 fps=0.0 q=0.0 size=       0KiB time=N/A bitrate=N/A speed=N/A elapsed=0:00:01.76    \nframe=    0 fps=0.0 q=0.0 size=       0KiB time=N/A bitrate=N/A speed=N/A elapsed=0:00:02.29    \nframe=    0 fps=0.0 q=0.0 size=       0KiB time=N/A bitrate=N/A speed=N/A elapsed=0:00:02.82    \nframe=    0 fps=0.0 q=0.0 size=       0KiB time=N/A bitrate=N/A speed=N/A elapsed=0:00:03.34    \nframe=    1 fps=0.3 q=59.0 size=       1KiB time=00:00:00.00 bitrate=N/A speed=   0x elapsed=0:00:03.87    \nframe=    4 fps=0.9 q=63.0 size=       1KiB time=00:00:00.03 bitrate= 170.9kbits/s speed=0.00758x elapsed=0:00:04.39    \nframe=    9 fps=1.8 q=62.0 size=       1KiB time=00:00:00.13 bitrate=  42.7kbits/s speed=0.027x elapsed=0:00:04.94    \nframe=   14 fps=2.6 q=62.0 size=       1KiB time=00:00:00.21 bitrate=  26.3kbits/s speed=0.0397x elapsed=0:00:05.46    \nframe=   19 fps=3.2 q=60.0 size=       1KiB time=00:00:00.30 bitrate=  19.0kbits/s speed=0.0501x elapsed=0:00:05.98    \nframe=   22 fps=3.4 q=62.0 size=       1KiB time=00:00:00.35 bitrate=  16.3kbits/s speed=0.0538x elapsed=0:00:06.50    \nframe=   25 fps=3.6 q=60.0 size=       1KiB time=00:00:00.40 bitrate=  14.2kbits/s speed=0.0569x elapsed=0:00:07.03    \nframe=   28 fps=3.7 q=60.0 size=       1KiB time=00:00:00.45 bitrate=  12.7kbits/s speed=0.0596x elapsed=0:00:07.55    \nframe=   33 fps=4.1 q=59.0 size=       1KiB time=00:00:00.53 bitrate=  10.7kbits/s speed=0.0661x elapsed=0:00:08.07    \nframe=   38 fps=4.4 q=63.0 size=       1KiB time=00:00:00.61 bitrate=   9.2kbits/s speed=0.0716x elapsed=0:00:08.61    \nframe=   43 fps=4.7 q=63.0 size=       1KiB time=00:00:00.68 bitrate=   8.3kbits/s speed=0.0746x elapsed=0:00:09.16    \nframe=   48 fps=4.9 q=63.0 size=       1KiB time=00:00:00.78 bitrate=   7.3kbits/s speed=0.0807x elapsed=0:00:09.70    \nframe=   54 fps=5.3 q=63.0 size=       1KiB time=00:00:00.88 bitrate=   6.4kbits/s speed=0.0864x elapsed=0:00:10.21    \nframe=   59 fps=5.5 q=63.0 size=       1KiB time=00:00:00.96 bitrate=   5.9kbits/s speed=0.09x elapsed=0:00:10.74    \nframe=   65 fps=5.8 q=57.0 size=       1KiB time=00:00:01.06 bitrate=   5.3kbits/s speed=0.0946x elapsed=0:00:11.27    \nframe=   71 fps=6.0 q=62.0 size=       1KiB time=00:00:01.16 bitrate=   4.9kbits/s speed=0.0988x elapsed=0:00:11.80    \nframe=   76 fps=6.1 q=63.0 size=       1KiB time=00:00:01.25 bitrate=   4.6kbits/s speed=0.101x elapsed=0:00:12.37    \nframe=   84 fps=6.5 q=63.0 size=       1KiB time=00:00:01.38 bitrate=   4.1kbits/s speed=0.107x elapsed=0:00:12.90    \nframe=   90 fps=6.7 q=63.0 size=       1KiB time=00:00:01.48 bitrate=   3.8kbits/s speed=0.11x elapsed=0:00:13.44    \nframe=   96 fps=6.9 q=63.0 size=       1KiB time=00:00:01.58 bitrate=   3.6kbits/s speed=0.113x elapsed=0:00:13.99    \nframe=  102 fps=7.0 q=63.0 size=       1KiB time=00:00:01.68 bitrate=   3.4kbits/s speed=0.116x elapsed=0:00:14.52    \nframe=  107 fps=7.1 q=63.0 size=       1KiB time=00:00:01.76 bitrate=   3.2kbits/s speed=0.117x elapsed=0:00:15.05    \nframe=  114 fps=7.3 q=63.0 size=       1KiB time=00:00:01.88 bitrate=   3.0kbits/s speed=0.121x elapsed=0:00:15.60    \nframe=  119 fps=7.4 q=62.0 size=       1KiB time=00:00:01.96 bitrate=   2.9kbits/s speed=0.122x elapsed=0:00:16.12    \nframe=  124 fps=7.4 q=63.0 size=       1KiB time=00:00:02.03 bitrate=   2.8kbits/s speed=0.122x elapsed=0:00:16.66    \nframe=  131 fps=7.6 q=63.0 size=       1KiB time=00:00:02.16 bitrate=   2.6kbits/s speed=0.126x elapsed=0:00:17.18    \nframe=  136 fps=7.7 q=63.0 size=       1KiB time=00:00:02.25 bitrate=   2.5kbits/s speed=0.127x elapsed=0:00:17.70    \nframe=  141 fps=7.7 q=62.0 size=       1KiB time=00:00:02.33 bitrate=   2.4kbits/s speed=0.128x elapsed=0:00:18.22    \nframe=  149 fps=7.9 q=63.0 size=       1KiB time=00:00:02.46 bitrate=   2.3kbits/s speed=0.132x elapsed=0:00:18.74    \nframe=  154 fps=8.0 q=63.0 size=       1KiB time=00:00:02.55 bitrate=   2.2kbits/s speed=0.132x elapsed=0:00:19.26    \nframe=  160 fps=8.1 q=63.0 size=       1KiB time=00:00:02.63 bitrate=   2.2kbits/s speed=0.133x elapsed=0:00:19.80    \nframe=  166 fps=8.2 q=63.0 size=       1KiB time=00:00:02.75 bitrate=   2.1kbits/s speed=0.135x elapsed=0:00:20.36    \nframe=  171 fps=8.2 q=63.0 size=       1KiB time=00:00:02.83 bitrate=   2.0kbits/s speed=0.136x elapsed=0:00:20.89    \nframe=  179 fps=8.3 q=63.0 size=       1KiB time=00:00:02.96 bitrate=   1.9kbits/s speed=0.138x elapsed=0:00:21.44    \nframe=  185 fps=8.4 q=62.0 size=       1KiB time=00:00:03.05 bitrate=   1.9kbits/s speed=0.139x elapsed=0:00:21.97    \nframe=  191 fps=8.5 q=63.0 size=       1KiB time=00:00:03.16 bitrate=   1.8kbits/s speed=0.141x elapsed=0:00:22.52    \nframe=  199 fps=8.6 q=62.0 size=       1KiB time=00:00:03.30 bitrate=   1.7kbits/s speed=0.143x elapsed=0:00:23.05    \nframe=  207 fps=8.8 q=63.0 size=       1KiB time=00:00:03.43 bitrate=   1.7kbits/s speed=0.146x elapsed=0:00:23.57    \nframe=  213 fps=8.8 q=63.0 size=       1KiB time=00:00:03.53 bitrate=   1.6kbits/s speed=0.147x elapsed=0:00:24.11    \nframe=  223 fps=9.0 q=63.0 size=       1KiB time=00:00:03.70 bitrate=   1.5kbits/s speed=0.15x elapsed=0:00:24.64    \nframe=  233 fps=9.3 q=62.0 size=       1KiB time=00:00:03.86 bitrate=   1.5kbits/s speed=0.154x elapsed=0:00:25.17    \nframe=  241 fps=9.4 q=59.0 size=       1KiB time=00:00:04.00 bitrate=   1.4kbits/s speed=0.156x elapsed=0:00:25.69    \nframe=  249 fps=9.5 q=61.0 size=       1KiB time=00:00:04.13 bitrate=   1.4kbits/s speed=0.158x elapsed=0:00:26.20    \nframe=  257 fps=9.6 q=58.0 size=       1KiB time=00:00:04.26 bitrate=   1.3kbits/s speed=0.16x elapsed=0:00:26.72    \nframe=  265 fps=9.7 q=61.0 size=       1KiB time=00:00:04.40 bitrate=   1.3kbits/s speed=0.161x elapsed=0:00:27.26    \nframe=  273 fps=9.8 q=58.0 size=       1KiB time=00:00:04.53 bitrate=   1.3kbits/s speed=0.163x elapsed=0:00:27.81    \nframe=  285 fps= 10 q=63.0 size=       1KiB time=00:00:04.73 bitrate=   1.2kbits/s speed=0.167x elapsed=0:00:28.33    \n[out#0/matroska @ 000002994d1c90c0] video:764KiB audio:0KiB subtitle:0KiB other streams:0KiB global headers:0KiB muxing overhead: 0.271553%\nframe=  300 fps= 10 q=63.0 Lsize=     766KiB time=00:00:04.98 bitrate=1259.1kbits/s speed=0.174x elapsed=0:00:28.57    \n",
  "seconds": 29.046770811080933,
  "probe_out": {}
}